# xmcd
#
# Track frame offsets:
#	150
#	26113
#	50230
#	71288
#	85902
#	121163
#	142482
#	155306
#	170136
#	199672
#	210158
#	226946
#	250856
#	270325
#
# Disc length: 3849 seconds
#
# Revision: 1
# Processed by: cddbd v1.5.1PL0 Copyright (c) Steve Scherf et al.
# Submitted via: audiograbber 1.83.01
#
DISCID=c30f070e
DTITLE=J. J. Lewis And The Groove Doctors - Sky Juice
DYEAR=1995
DGENRE=Blues
TTITLE0=Time
TTITLE1=Easy
TTITLE2=Instrument Of Love Unplugged
TTITLE3=Ain't Nothin' Shakin'
TTITLE4=Sky Is Crying
TTITLE5=Good Good Thing
TTITLE6=I Get Up
TTITLE7=Get Real
TTITLE8=Trust Your Wings
TTITLE9=Sun
TTITLE10=Drums
TTITLE11=Fiesta
TTITLE12=Sky Juice
TTITLE13=Instrument Of Love
EXTD=Produced by J. J. Lewis and The "Groove Doctors"\nRecorded, mixed and master
EXTD=ed by Jörg Höllwarth jun.\n1995 SPA Records
EXTT0=
EXTT1=
EXTT2=
EXTT3=
EXTT4=E. James/W. Robinson  Arr. Lewis
EXTT5=
EXTT6=
EXTT7=
EXTT8=
EXTT9=
EXTT10=
EXTT11=
EXTT12=
EXTT13=
PLAYORDER=
